<svg xmlns="http://www.w3.org/2000/svg" xmlns:xlink="http://www.w3.org/1999/xlink" viewBox="0 0 580 206"><defs><style>.cls-1{fill:url(#linear-gradient);}.cls-2{fill:url(#linear-gradient-2);}.cls-3{fill:url(#linear-gradient-3);}.cls-4{fill:url(#linear-gradient-4);}.cls-5{fill:url(#linear-gradient-5);}.cls-6{fill:url(#linear-gradient-6);}.cls-7{fill:url(#linear-gradient-7);}.cls-8{fill:url(#linear-gradient-8);}.cls-9{fill:url(#linear-gradient-9);}.cls-10{fill:url(#linear-gradient-10);}.cls-11{fill:url(#linear-gradient-11);}</style><linearGradient id="linear-gradient" x1="204.65" y1="19.14" x2="204.65" y2="206.88" gradientUnits="userSpaceOnUse"><stop offset="0" stop-color="#1fc5ff"/><stop offset="0.04" stop-color="#44a7ff"/><stop offset="0.11" stop-color="#7580ff"/><stop offset="0.17" stop-color="#9d60ff"/><stop offset="0.24" stop-color="#bc47ff"/><stop offset="0.3" stop-color="#d235ff"/><stop offset="0.36" stop-color="#df2bff"/><stop offset="0.41" stop-color="#e427ff"/><stop offset="0.82" stop-color="#ff245e"/><stop offset="0.86" stop-color="#ff3a53"/><stop offset="0.94" stop-color="#ff7437"/><stop offset="1" stop-color="#ffa022"/></linearGradient><linearGradient id="linear-gradient-2" x1="253.82" y1="19.14" x2="253.82" y2="206.88" xlink:href="#linear-gradient"/><linearGradient id="linear-gradient-3" x1="298.31" y1="19.14" x2="298.31" y2="206.88" xlink:href="#linear-gradient"/><linearGradient id="linear-gradient-4" x1="354.59" y1="19.14" x2="354.59" y2="206.88" xlink:href="#linear-gradient"/><linearGradient id="linear-gradient-5" x1="396.51" y1="19.14" x2="396.51" y2="206.88" xlink:href="#linear-gradient"/><linearGradient id="linear-gradient-6" x1="435.56" y1="19.14" x2="435.56" y2="206.88" xlink:href="#linear-gradient"/><linearGradient id="linear-gradient-7" x1="477.22" y1="19.14" x2="477.22" y2="206.88" xlink:href="#linear-gradient"/><linearGradient id="linear-gradient-8" x1="515.97" y1="19.14" x2="515.97" y2="206.88" xlink:href="#linear-gradient"/><linearGradient id="linear-gradient-9" x1="563.98" y1="19.14" x2="563.98" y2="206.88" xlink:href="#linear-gradient"/><linearGradient id="linear-gradient-10" x1="94.94" y1="-5.71" x2="94.94" y2="215.1" xlink:href="#linear-gradient"/><linearGradient id="linear-gradient-11" x1="90.29" y1="-0.86" x2="90.29" y2="206.76" xlink:href="#linear-gradient"/></defs><title>logo</title><g id="Layer_2" data-name="Layer 2"><g id="Layer_1-2" data-name="Layer 1"><path class="cls-1" d="M197.4,57.33v26.1a19.94,19.94,0,0,1,6.2-4.94,17.1,17.1,0,0,1,8-1.91q7.66,0,11.44,4t3.78,12.34v34.16q0,3.23-6,3.22H218q-6,0-6-3.22V95.12q0-6.25-6.45-6.25a7.15,7.15,0,0,0-4.79,1.76,13.61,13.61,0,0,0-3.27,4.08v32.35q0,3.23-6,3.22h-2.82q-6,0-6-3.22V57.33q0-3.22,6-3.22h2.82Q197.4,54.1,197.4,57.33Z"/><path class="cls-2" d="M268.59,78.24A6.1,6.1,0,0,1,269.85,82a20,20,0,0,1-.91,5.29q-.91,3.17-2.22,3.17a9.75,9.75,0,0,1-2.12-.4,10.44,10.44,0,0,0-2.62-.4,7.72,7.72,0,0,0-4.79,1.56,13.3,13.3,0,0,0-3.27,3.48v32.35q0,3.23-6,3.22h-2.82q-6,0-6-3.22V95.12q0-4.43-.25-6.8T238.1,83a11.11,11.11,0,0,1-.3-2.12q0-1.61,4.08-2.42a37.74,37.74,0,0,1,7.2-.81A2.59,2.59,0,0,1,251.61,79a12.08,12.08,0,0,1,1.06,3q.35,1.61.45,2.22a18.16,18.16,0,0,1,4.48-5.59,10,10,0,0,1,6.5-2.07Q267.33,76.58,268.59,78.24Z"/><path class="cls-3" d="M316.55,83.53q6.2,7,6.2,20.15t-6.2,20.2q-6.2,7-18.19,7t-18.24-7q-6.25-7-6.25-20.2t6.25-20.15q6.25-7,18.24-7T316.55,83.53Zm-25.24,8.67Q289,96,289,103.68q0,15.42,9.37,15.42a7.55,7.55,0,0,0,7-3.88q2.27-3.88,2.27-11.54t-2.27-11.49a7.58,7.58,0,0,0-7-3.83A7.69,7.69,0,0,0,291.31,92.19Z"/><path class="cls-4" d="M373.53,80.56q3.63,4,3.63,12.34v34.16q0,3.23-6,3.22h-2.82q-6,0-6-3.22V95.12a6.8,6.8,0,0,0-1.41-4.69q-1.41-1.56-4.64-1.56a7.15,7.15,0,0,0-4.79,1.76,13.61,13.61,0,0,0-3.27,4.08v32.35q0,3.23-6,3.22h-2.82q-6,0-6-3.22V95.12q0-4.43-.25-6.8T332.32,83a11.11,11.11,0,0,1-.3-2.12q0-1.61,4.08-2.42a37.74,37.74,0,0,1,7.2-.81A2.59,2.59,0,0,1,345.82,79a12.08,12.08,0,0,1,1.06,3q.35,1.61.45,2.22a19.88,19.88,0,0,1,6.45-5.44,17.52,17.52,0,0,1,8.56-2.22Q369.91,76.58,373.53,80.56Z"/><path class="cls-5" d="M404,57.33v8.16q0,3.23-6,3.22H395.1q-6,0-6-3.22V57.33q0-3.22,6-3.22h2.82Q404,54.1,404,57.33Zm0,23.08v46.66q0,3.23-6,3.22H395.1q-6,0-6-3.22V80.4q0-3.22,6-3.22h2.82Q404,77.18,404,80.4Z"/><path class="cls-6" d="M451.38,78.44q5.29,1.87,5.29,5.09,0,1.51-2.07,4.64t-3.28,3.12a5.9,5.9,0,0,1-1.81-.71,26.12,26.12,0,0,0-4-1.61,16.43,16.43,0,0,0-4.79-.6q-5.95,0-8.67,3.73t-2.72,11.59q0,7.86,2.57,11.64t8.21,3.78a23.05,23.05,0,0,0,9.88-2.32,12.05,12.05,0,0,1,1.81-.6,3.37,3.37,0,0,1,2.27,1.46,14.08,14.08,0,0,1,2.12,3.33,7.65,7.65,0,0,1,.86,2.87q0,2.52-3.38,4.13a27.2,27.2,0,0,1-7.61,2.27,46.32,46.32,0,0,1-6.65.65q-12.9,0-19.15-6.6T414,104.08q0-13.7,6.3-20.61t19.6-6.9A34.19,34.19,0,0,1,451.38,78.44Z"/><path class="cls-7" d="M479.94,57.33v57.44a5.13,5.13,0,0,0,.86,3.33,3.45,3.45,0,0,0,2.77,1,6.26,6.26,0,0,0,1.36-.2,6.32,6.32,0,0,1,1.36-.2q.91,0,1.61,1.51a16.23,16.23,0,0,1,1.11,3.33,14.27,14.27,0,0,1,.4,2.42q0,4.94-9.67,4.94-14.71,0-14.71-16.32V57.33q0-3.22,6-3.22h2.82Q479.94,54.1,479.94,57.33Z"/><path class="cls-8" d="M533.8,83.83q5.29,7.26,5.29,18.74,0,1.21-2.07,3.58T534,108.52h-25.7q.5,5.74,3.43,8.16t8.16,2.42a18.82,18.82,0,0,0,5.14-.66,48.52,48.52,0,0,0,4.84-1.66A6.33,6.33,0,0,1,532,116a3.37,3.37,0,0,1,2.27,1.46,14.12,14.12,0,0,1,2.12,3.33,7.67,7.67,0,0,1,.86,2.87q0,2.32-3.12,4a25.93,25.93,0,0,1-7.46,2.47,42.09,42.09,0,0,1-7.56.81q-13.3,0-19.8-7.1t-6.5-19.7q0-14.21,6.5-20.86t18-6.65Q528.51,76.58,533.8,83.83ZM508.26,98.54h16.32a13.36,13.36,0,0,0-1.81-7.41,6.07,6.07,0,0,0-5.44-2.77Q509.87,88.37,508.26,98.54Z"/><path class="cls-9" d="M578.74,78.24A6.09,6.09,0,0,1,580,82a20,20,0,0,1-.91,5.29q-.91,3.17-2.22,3.17a9.73,9.73,0,0,1-2.12-.4,10.45,10.45,0,0,0-2.62-.4,7.72,7.72,0,0,0-4.79,1.56,13.3,13.3,0,0,0-3.27,3.48v32.35q0,3.23-6,3.22h-2.82q-6,0-6-3.22V95.12q0-4.43-.25-6.8T548.26,83a11.08,11.08,0,0,1-.3-2.12q0-1.61,4.08-2.42a37.75,37.75,0,0,1,7.21-.81A2.59,2.59,0,0,1,561.76,79a12.12,12.12,0,0,1,1.06,3q.35,1.61.45,2.22a18.16,18.16,0,0,1,4.48-5.59,10,10,0,0,1,6.5-2.07Q577.48,76.58,578.74,78.24Z"/><path class="cls-10" d="M189.88,148.9l-38.1,10.21,7.54,7.54A85,85,0,1,1,163.1,42.9l12.73-12.73a103,103,0,1,0-3.76,149.23l7.6,7.6Z"/><path class="cls-11" d="M107.33,95.82V36.91h-8V95.82a9.06,9.06,0,0,0-4.71,10.71L68.16,133l5.66,5.66L100,112.43a9.07,9.07,0,0,0,7.29-16.6Z"/></g></g></svg>